<?xml version='1.0' encoding='ascii'?>
<svg xmlns="http://www.w3.org/2000/svg" xmlns:inkscape="http://www.inkscape.org/namespaces/inkscape" version="1.1" width="128" height="128">
    <g id="ViewLayer_LineSet" inkscape:groupmode="lineset" inkscape:label="ViewLayer_LineSet">
        <g inkscape:groupmode="layer" id="strokes" inkscape:label="strokes">
            <path fill="none" stroke-width="0.5" stroke-linecap="butt" stroke-opacity="1.0" stroke="rgb(0, 0, 0)" stroke-linejoin="round" d=" M 19.164, 86.386 17.990, 76.456 16.816, 66.525 15.642, 56.594 14.467, 46.663 13.293, 36.732 12.119, 26.802 11.918, 25.104 21.803, 23.594 31.689, 22.084 41.574, 20.574 51.459, 19.065 61.345, 17.555 63.870, 17.169 73.718, 18.903 83.567, 20.636 93.416, 22.370 103.264, 24.103 113.123, 25.839 112.013, 35.777 110.903, 45.715 109.792, 55.653 108.682, 65.592 107.572, 75.530 106.461, 85.468 106.180, 87.989 97.670, 93.241 89.160, 98.493 80.650, 103.745 72.141, 108.997 63.631, 114.249 59.879, 116.565 51.845, 110.610 43.811, 104.655 35.777, 98.700 27.744, 92.746 19.710, 86.791 19.164, 86.386 " />
            <path fill="#bd34fe" stroke-width="0.5" stroke-linecap="butt" stroke-opacity="1.0" stroke="rgb(0, 0, 0)" stroke-linejoin="round" d=" M 113.123, 25.839 103.274, 24.105 93.426, 22.372 83.577, 20.638 73.729, 18.904 63.870, 17.169 53.984, 18.679 44.099, 20.189 34.214, 21.699 24.328, 23.208 14.443, 24.718 11.918, 25.104 21.499, 27.969 31.079, 30.835 40.660, 33.701 50.240, 36.566 59.048, 39.200 63.876, 38.007 73.584, 35.609 83.292, 33.210 93.000, 30.811 102.708, 28.412 112.416, 26.014 113.123, 25.839 " />
            <path fill="#b71818" stroke-width="0.5" stroke-linecap="butt" stroke-opacity="1.0" stroke="rgb(0, 0, 0)" stroke-linejoin="round" d=" M 106.180, 87.989 107.290, 78.051 108.400, 68.113 109.511, 58.174 110.621, 48.236 111.731, 38.298 112.841, 28.360 113.123, 25.839 103.415, 28.238 93.707, 30.636 83.999, 33.035 74.291, 35.434 64.583, 37.833 63.876, 38.007 59.048, 39.200 59.155, 49.200 59.263, 59.199 59.370, 69.199 59.382, 70.342 59.490, 80.342 59.597, 90.341 59.704, 100.341 59.812, 110.340 59.879, 116.565 68.389, 111.313 76.898, 106.061 85.408, 100.809 93.918, 95.557 102.428, 90.305 106.180, 87.989 " />
            <path fill="#ffda32" stroke-width="0.5" stroke-linecap="butt" stroke-opacity="1.0" stroke="rgb(0, 0, 0)" stroke-linejoin="round" d=" M 59.879, 116.565 59.771, 106.565 59.664, 96.566 59.556, 86.566 59.449, 76.567 59.382, 70.342 59.275, 60.343 59.167, 50.344 59.060, 40.344 59.048, 39.200 49.467, 36.335 39.886, 33.469 30.306, 30.604 20.725, 27.738 11.918, 25.104 13.092, 35.035 14.266, 44.965 15.441, 54.896 16.615, 64.827 17.789, 74.758 18.964, 84.689 19.164, 86.386 27.198, 92.341 35.232, 98.296 43.266, 104.251 51.299, 110.205 59.333, 116.160 59.879, 116.565 " />
        </g>
    </g>
    <g id="ViewLayer_Edge" xmlns:inkscape="http://www.inkscape.org/namespaces/inkscape" inkscape:groupmode="lineset" inkscape:label="ViewLayer_Edge">
        <g xmlns:inkscape="http://www.inkscape.org/namespaces/inkscape" inkscape:groupmode="layer" id="strokes" inkscape:label="strokes" />
    </g>
</svg>
